<svg width="24" height="24" viewBox="0 0 24 24" fill="none" xmlns="http://www.w3.org/2000/svg">
<path d="M12.1391 2.11035C6.85401 2.11035 2.57422 6.40016 2.57422 11.6858C2.57422 16.9715 6.85401 21.2613 12.1391 21.2613C17.4338 21.2613 21.7232 16.9715 21.7232 11.6858C21.7232 6.40016 17.4338 2.11035 12.1391 2.11035ZM12.1487 19.3462C7.91677 19.3462 4.48911 15.9182 4.48911 11.6858C4.48911 7.45346 7.91677 4.02545 12.1487 4.02545C16.3806 4.02545 19.8083 7.45346 19.8083 11.6858C19.8083 15.9182 16.3806 19.3462 12.1487 19.3462Z" fill="black"/>
<path d="M12.6276 6.89844H11.1914V12.6437L16.218 15.66L16.9361 14.4822L12.6276 11.9256V6.89844Z" fill="black"/>
</svg>
