<svg width="50" height="50" viewBox="0 0 50 50" fill="none" xmlns="http://www.w3.org/2000/svg">
<rect x="0.5" width="49.3438" height="49.3438" rx="24.6719" fill="white"/>
<path d="M17.7803 14.165L25.5003 21.885L33.1803 14.205C33.35 14.0244 33.5543 13.88 33.7812 13.7803C34.008 13.6807 34.2526 13.6278 34.5003 13.625C35.0308 13.625 35.5395 13.8357 35.9145 14.2108C36.2896 14.5859 36.5003 15.0946 36.5003 15.625C36.505 15.8702 36.4595 16.1138 36.3666 16.3408C36.2738 16.5678 36.1355 16.7734 35.9603 16.945L28.1803 24.625L35.9603 32.405C36.29 32.7275 36.4832 33.1642 36.5003 33.625C36.5003 34.1554 36.2896 34.6641 35.9145 35.0392C35.5395 35.4143 35.0308 35.625 34.5003 35.625C34.2454 35.6356 33.9911 35.593 33.7536 35.5001C33.516 35.4071 33.3003 35.2658 33.1203 35.085L25.5003 27.365L17.8003 35.065C17.6313 35.2395 17.4295 35.3789 17.2063 35.475C16.9832 35.5711 16.7433 35.6221 16.5003 35.625C15.9699 35.625 15.4612 35.4143 15.0861 35.0392C14.711 34.6641 14.5003 34.1554 14.5003 33.625C14.4957 33.3798 14.5412 33.1362 14.634 32.9092C14.7269 32.6822 14.8651 32.4766 15.0403 32.305L22.8203 24.625L15.0403 16.845C14.7107 16.5225 14.5174 16.0858 14.5003 15.625C14.5003 15.0946 14.711 14.5859 15.0861 14.2108C15.4612 13.8357 15.9699 13.625 16.5003 13.625C16.9803 13.631 17.4403 13.825 17.7803 14.165Z" fill="black"/>
</svg>
