<svg width="63" height="36" viewBox="0 0 63 36" fill="none" xmlns="http://www.w3.org/2000/svg">
<rect y="16.2783" width="62.234" height="19.1509" rx="3" fill="#1C1C1C"/>
<path d="M6.32896 32.9558L7.56067 27.6305L3.42969 24.0487L8.88713 23.5749L11.0095 18.5527L13.1318 23.5749L18.5893 24.0487L14.4583 27.6305L15.69 32.9558L11.0095 30.1321L6.32896 32.9558Z" fill="#E79800"/>
<path d="M28.8347 29.7909L31.2224 28.3506L33.61 29.8099L32.9847 27.0809L35.0881 25.2615L32.3214 25.0152L31.2224 22.4378L30.1233 24.9962L27.3567 25.2426L29.4601 27.0809L28.8347 29.7909ZM26.5418 32.9558L27.7736 27.6305L23.6426 24.0487L29.1 23.5749L31.2224 18.5527L33.3447 23.5749L38.8022 24.0487L34.6712 27.6305L35.9029 32.9558L31.2224 30.1321L26.5418 32.9558Z" fill="#E79800"/>
<path d="M48.8347 29.7909L51.2224 28.3506L53.61 29.8099L52.9847 27.0809L55.0881 25.2615L52.3214 25.0152L51.2224 22.4378L50.1233 24.9962L47.3567 25.2426L49.4601 27.0809L48.8347 29.7909ZM46.5418 32.9558L47.7736 27.6305L43.6426 24.0487L49.1 23.5749L51.2224 18.5527L53.3447 23.5749L58.8022 24.0487L54.6712 27.6305L55.9029 32.9558L51.2224 30.1321L46.5418 32.9558Z" fill="#E79800"/>
<path d="M17.8357 15V6.27273H23.7163V7.79403H19.6808V9.87358H23.4138V11.3949H19.6808V13.4787H23.7334V15H17.8357ZM27.0157 15.1236C26.5981 15.1236 26.2259 15.0511 25.8992 14.9062C25.5725 14.7585 25.314 14.5412 25.1236 14.2543C24.9361 13.9645 24.8424 13.6037 24.8424 13.1719C24.8424 12.8082 24.9092 12.5028 25.0427 12.2557C25.1762 12.0085 25.358 11.8097 25.5881 11.6591C25.8182 11.5085 26.0796 11.3949 26.3722 11.3182C26.6677 11.2415 26.9773 11.1875 27.3012 11.1562C27.6819 11.1165 27.9887 11.0795 28.2217 11.0455C28.4546 11.0085 28.6236 10.9545 28.7288 10.8835C28.8339 10.8125 28.8864 10.7074 28.8864 10.5682V10.5426C28.8864 10.2727 28.8012 10.0639 28.6307 9.91619C28.4631 9.76847 28.2245 9.6946 27.9148 9.6946C27.5881 9.6946 27.3282 9.76705 27.135 9.91193C26.9418 10.054 26.814 10.233 26.7515 10.4489L25.0725 10.3125C25.1577 9.91477 25.3254 9.57102 25.5754 9.28125C25.8254 8.98864 26.1478 8.7642 26.5427 8.60795C26.9404 8.44886 27.4006 8.36932 27.9234 8.36932C28.287 8.36932 28.635 8.41193 28.9674 8.49716C29.3026 8.58239 29.5995 8.71449 29.858 8.89347C30.1194 9.07244 30.3254 9.30256 30.4759 9.58381C30.6265 9.86222 30.7018 10.196 30.7018 10.5852V15H28.9802V14.0923H28.929C28.8239 14.2969 28.6833 14.4773 28.5072 14.6335C28.331 14.7869 28.1194 14.9077 27.8722 14.9957C27.6251 15.081 27.3396 15.1236 27.0157 15.1236ZM27.5356 13.8707C27.8026 13.8707 28.0384 13.8182 28.243 13.7131C28.4475 13.6051 28.608 13.4602 28.7245 13.2784C28.841 13.0966 28.8992 12.8906 28.8992 12.6605V11.9659C28.8424 12.0028 28.7643 12.0369 28.6648 12.0682C28.5682 12.0966 28.4589 12.1236 28.3367 12.1491C28.2146 12.1719 28.0924 12.1932 27.9702 12.2131C27.8481 12.2301 27.7373 12.2457 27.6379 12.2599C27.4248 12.2912 27.2387 12.3409 27.0796 12.4091C26.9205 12.4773 26.7969 12.5696 26.7089 12.6861C26.6208 12.7997 26.5768 12.9418 26.5768 13.1122C26.5768 13.3594 26.6663 13.5483 26.8452 13.679C27.0271 13.8068 27.2572 13.8707 27.5356 13.8707ZM37.5562 10.321L35.8942 10.4233C35.8658 10.2812 35.8048 10.1534 35.711 10.0398C35.6173 9.9233 35.4937 9.83097 35.3403 9.76278C35.1897 9.69176 35.0093 9.65625 34.7991 9.65625C34.5178 9.65625 34.2806 9.71591 34.0874 9.83523C33.8942 9.9517 33.7977 10.108 33.7977 10.304C33.7977 10.4602 33.8602 10.5923 33.9852 10.7003C34.1102 10.8082 34.3246 10.8949 34.6286 10.9602L35.8133 11.1989C36.4496 11.3295 36.9241 11.5398 37.2366 11.8295C37.5491 12.1193 37.7053 12.5 37.7053 12.9716C37.7053 13.4006 37.5789 13.777 37.3261 14.1009C37.0761 14.4247 36.7323 14.6776 36.2948 14.8594C35.8602 15.0384 35.3587 15.1278 34.7906 15.1278C33.9241 15.1278 33.2337 14.9474 32.7195 14.5866C32.2082 14.223 31.9084 13.7287 31.8204 13.1037L33.6059 13.0099C33.6599 13.2741 33.7906 13.4759 33.9979 13.6151C34.2053 13.7514 34.4709 13.8196 34.7948 13.8196C35.113 13.8196 35.3687 13.7585 35.5619 13.6364C35.7579 13.5114 35.8573 13.3509 35.8602 13.1548C35.8573 12.9901 35.7877 12.8551 35.6513 12.75C35.515 12.642 35.3048 12.5597 35.0207 12.5028L33.8871 12.277C33.2479 12.1491 32.7721 11.9276 32.4596 11.6122C32.1499 11.2969 31.9951 10.8949 31.9951 10.4062C31.9951 9.9858 32.1087 9.62358 32.336 9.3196C32.5661 9.01562 32.8886 8.78125 33.3033 8.61648C33.7209 8.4517 34.2096 8.36932 34.7692 8.36932C35.5959 8.36932 36.2465 8.54403 36.7209 8.89347C37.1982 9.2429 37.4766 9.71875 37.5562 10.321ZM39.9692 17.4545C39.7391 17.4545 39.5231 17.4361 39.3214 17.3991C39.1226 17.3651 38.9578 17.321 38.8271 17.267L39.2362 15.9119C39.4493 15.9773 39.641 16.0128 39.8115 16.0185C39.9848 16.0241 40.1339 15.9844 40.2589 15.8991C40.3868 15.8139 40.4905 15.669 40.57 15.4645L40.6766 15.1875L38.3285 8.45455H40.2376L41.5928 13.2614H41.6609L43.0288 8.45455H44.9507L42.4067 15.7074C42.2845 16.0597 42.1183 16.3665 41.9081 16.6278C41.7007 16.892 41.4379 17.0952 41.1197 17.2372C40.8016 17.3821 40.418 17.4545 39.9692 17.4545Z" fill="#E79800"/>
</svg>
