<svg width="50" height="50" viewBox="0 0 50 50" fill="none" xmlns="http://www.w3.org/2000/svg">
<rect x="0.15625" width="49.3438" height="49.3438" rx="24.6719" fill="white"/>
<path d="M24.625 32.8125L24.5 32.9375L24.3625 32.8125C18.425 27.425 14.5 23.8625 14.5 20.25C14.5 17.75 16.375 15.875 18.875 15.875C20.8 15.875 22.675 17.125 23.3375 18.825H25.6625C26.325 17.125 28.2 15.875 30.125 15.875C32.625 15.875 34.5 17.75 34.5 20.25C34.5 23.8625 30.575 27.425 24.625 32.8125ZM30.125 13.375C27.95 13.375 25.8625 14.3875 24.5 15.975C23.1375 14.3875 21.05 13.375 18.875 13.375C15.025 13.375 12 16.3875 12 20.25C12 24.9625 16.25 28.825 22.6875 34.6625L24.5 36.3125L26.3125 34.6625C32.75 28.825 37 24.9625 37 20.25C37 16.3875 33.975 13.375 30.125 13.375Z" fill="black"/>
</svg>
