<svg width="65" height="88" viewBox="0 0 65 88" fill="none" xmlns="http://www.w3.org/2000/svg">
<rect width="65" height="88" rx="32.5" fill="white"/>
<path d="M22.2917 45.25C21.4896 45.25 20.8027 44.9647 20.231 44.394C19.6603 43.8223 19.375 43.1354 19.375 42.3333V36.5H22.2917V42.3333H42.7083V21.9167H22.2917V27.75H19.375V21.9167C19.375 21.1146 19.6603 20.4277 20.231 19.856C20.8027 19.2853 21.4896 19 22.2917 19H42.7083C43.5104 19 44.1973 19.2853 44.769 19.856C45.3397 20.4277 45.625 21.1146 45.625 21.9167V42.3333C45.625 43.1354 45.3397 43.8223 44.769 44.394C44.1973 44.9647 43.5104 45.25 42.7083 45.25H22.2917ZM30.3125 39.4167L28.2708 37.3021L31.9896 33.5833H19.375V30.6667H31.9896L28.2708 26.9479L30.3125 24.8333L37.6042 32.125L30.3125 39.4167Z" fill="black"/>
<path d="M24.6893 70V62.7273H29.0785V63.5085H25.57V65.9659H28.8512V66.7472H25.57V69.2188H29.1353V70H24.6893ZM31.1772 64.5455L32.484 66.7756L33.7908 64.5455H34.7567L32.9954 67.2727L34.7567 70H33.7908L32.484 67.8835L31.1772 70H30.2113L31.9442 67.2727L30.2113 64.5455H31.1772ZM35.9526 70V64.5455H36.7907V70H35.9526ZM36.3787 63.6364C36.2154 63.6364 36.0745 63.5807 35.9561 63.4695C35.8401 63.3582 35.7821 63.2244 35.7821 63.0682C35.7821 62.9119 35.8401 62.7782 35.9561 62.6669C36.0745 62.5556 36.2154 62.5 36.3787 62.5C36.5421 62.5 36.6818 62.5556 36.7978 62.6669C36.9161 62.7782 36.9753 62.9119 36.9753 63.0682C36.9753 63.2244 36.9161 63.3582 36.7978 63.4695C36.6818 63.5807 36.5421 63.6364 36.3787 63.6364ZM40.6978 64.5455V65.2557H37.8711V64.5455H40.6978ZM38.695 63.2386H39.533V68.4375C39.533 68.6742 39.5674 68.8518 39.636 68.9702C39.707 69.0862 39.797 69.1643 39.9059 69.2045C40.0172 69.2424 40.1344 69.2614 40.2575 69.2614C40.3498 69.2614 40.4255 69.2566 40.4847 69.2472C40.5439 69.2353 40.5913 69.2259 40.6268 69.2188L40.7972 69.9716C40.7404 69.9929 40.6611 70.0142 40.5593 70.0355C40.4575 70.0592 40.3285 70.071 40.1722 70.071C39.9355 70.071 39.7035 70.0201 39.4762 69.9183C39.2513 69.8165 39.0643 69.6615 38.9151 69.4531C38.7683 69.2448 38.695 68.982 38.695 68.6648V63.2386Z" fill="black"/>
</svg>
