<svg width="24" height="25" viewBox="0 0 24 25" fill="none" xmlns="http://www.w3.org/2000/svg">
<g clip-path="url(#clip0_586_1093)">
<path d="M12.6103 1.85549C12.4361 1.71942 12.2213 1.64551 12.0003 1.64551C11.7792 1.64551 11.5645 1.71942 11.3903 1.85549C9.49028 3.3055 3.88028 8.03549 3.91028 13.5455C3.91028 18.0055 7.54028 21.6455 12.0103 21.6455C16.4803 21.6455 20.1103 18.0155 20.1103 13.5555C20.1203 8.12549 14.5003 3.3155 12.6103 1.85549V1.85549Z" stroke="#005B46" stroke-width="1.5" stroke-miterlimit="10"/>
<path d="M12 1.64551V21.6455M12 18.6055L19.7 14.8655M12 13.6055L19.37 10.0255M12 8.60551L17.03 6.15551" stroke="#005B46" stroke-width="1.5" stroke-linecap="round" stroke-linejoin="round"/>
</g>
<defs>
<clipPath id="clip0_586_1093">
<rect width="24" height="24" fill="white" transform="translate(0 0.0205078)"/>
</clipPath>
</defs>
</svg>
