<svg width="65" height="65" viewBox="0 0 65 65" fill="none" xmlns="http://www.w3.org/2000/svg">
<rect width="65" height="65" rx="32.5" fill="white"/>
<path d="M21.5625 34.3125C20.9549 34.3125 20.4386 34.0996 20.0137 33.6738C19.5879 33.2489 19.375 32.7326 19.375 32.125C19.375 31.5174 19.5879 31.0011 20.0137 30.5763C20.4386 30.1504 20.9549 29.9375 21.5625 29.9375C22.1701 29.9375 22.6864 30.1504 23.1112 30.5763C23.5371 31.0011 23.75 31.5174 23.75 32.125C23.75 32.7326 23.5371 33.2489 23.1112 33.6738C22.6864 34.0996 22.1701 34.3125 21.5625 34.3125ZM21.5625 25.5625C20.9549 25.5625 20.4386 25.3496 20.0137 24.9237C19.5879 24.4989 19.375 23.9826 19.375 23.375C19.375 22.7674 19.5879 22.2511 20.0137 21.8263C20.4386 21.4004 20.9549 21.1875 21.5625 21.1875C22.1701 21.1875 22.6864 21.4004 23.1112 21.8263C23.5371 22.2511 23.75 22.7674 23.75 23.375C23.75 23.9826 23.5371 24.4989 23.1112 24.9237C22.6864 25.3496 22.1701 25.5625 21.5625 25.5625ZM21.5625 43.0625C20.9549 43.0625 20.4386 42.8496 20.0137 42.4238C19.5879 41.9989 19.375 41.4826 19.375 40.875C19.375 40.2674 19.5879 39.7511 20.0137 39.3263C20.4386 38.9004 20.9549 38.6875 21.5625 38.6875C22.1701 38.6875 22.6864 38.9004 23.1112 39.3263C23.5371 39.7511 23.75 40.2674 23.75 40.875C23.75 41.4826 23.5371 41.9989 23.1112 42.4238C22.6864 42.8496 22.1701 43.0625 21.5625 43.0625ZM28.125 42.3333C27.7118 42.3333 27.3657 42.1933 27.0867 41.9133C26.8067 41.6343 26.6667 41.2882 26.6667 40.875C26.6667 40.4618 26.8067 40.1157 27.0867 39.8367C27.3657 39.5567 27.7118 39.4167 28.125 39.4167H44.1667C44.5799 39.4167 44.926 39.5567 45.205 39.8367C45.485 40.1157 45.625 40.4618 45.625 40.875C45.625 41.2882 45.485 41.6343 45.205 41.9133C44.926 42.1933 44.5799 42.3333 44.1667 42.3333H28.125ZM28.125 33.5833C27.7118 33.5833 27.3657 33.4433 27.0867 33.1633C26.8067 32.8843 26.6667 32.5382 26.6667 32.125C26.6667 31.7118 26.8067 31.3652 27.0867 31.0852C27.3657 30.8062 27.7118 30.6667 28.125 30.6667H44.1667C44.5799 30.6667 44.926 30.8062 45.205 31.0852C45.485 31.3652 45.625 31.7118 45.625 32.125C45.625 32.5382 45.485 32.8843 45.205 33.1633C44.926 33.4433 44.5799 33.5833 44.1667 33.5833H28.125ZM28.125 24.8333C27.7118 24.8333 27.3657 24.6938 27.0867 24.4148C26.8067 24.1348 26.6667 23.7882 26.6667 23.375C26.6667 22.9618 26.8067 22.6152 27.0867 22.3352C27.3657 22.0562 27.7118 21.9167 28.125 21.9167H44.1667C44.5799 21.9167 44.926 22.0562 45.205 22.3352C45.485 22.6152 45.625 22.9618 45.625 23.375C45.625 23.7882 45.485 24.1348 45.205 24.4148C44.926 24.6938 44.5799 24.8333 44.1667 24.8333H28.125Z" fill="black"/>
</svg>
