<svg width="63" height="37" viewBox="0 0 63 37" fill="none" xmlns="http://www.w3.org/2000/svg">
<rect y="16.9033" width="62.234" height="19.1509" rx="3" fill="#1C1C1C"/>
<path d="M6.32896 33.5808L7.56067 28.2555L3.42969 24.6737L8.88713 24.1999L11.0095 19.1777L13.1318 24.1999L18.5893 24.6737L14.4583 28.2555L15.69 33.5808L11.0095 30.7571L6.32896 33.5808Z" fill="#E79800"/>
<path d="M26.4364 33.5808L27.6681 28.2555L23.5371 24.6737L28.9946 24.1999L31.1169 19.1777L33.2392 24.1999L38.6967 24.6737L34.5657 28.2555L35.7974 33.5808L31.1169 30.7571L26.4364 33.5808Z" fill="#E79800"/>
<path d="M48.8347 30.4159L51.2224 28.9756L53.61 30.4349L52.9847 27.7059L55.0881 25.8865L52.3214 25.6402L51.2224 23.0628L50.1233 25.6212L47.3567 25.8676L49.4601 27.7059L48.8347 30.4159ZM46.5418 33.5808L47.7736 28.2555L43.6426 24.6737L49.1 24.1999L51.2224 19.1777L53.3447 24.1999L58.8022 24.6737L54.6712 28.2555L55.9029 33.5808L51.2224 30.7571L46.5418 33.5808Z" fill="#E79800"/>
<path d="M8.14424 6.89773H10.4198L12.8232 12.7614H12.9255L15.3289 6.89773H17.6045V15.625H15.8147V9.9446H15.7423L13.4837 15.5824H12.265L10.0065 9.9233H9.93402V15.625H8.14424V6.89773ZM22.0736 15.7528C21.4003 15.7528 20.8207 15.6165 20.3349 15.3438C19.852 15.0682 19.4798 14.679 19.2185 14.1761C18.9571 13.6705 18.8264 13.0724 18.8264 12.3821C18.8264 11.7088 18.9571 11.1179 19.2185 10.6094C19.4798 10.1009 19.8477 9.70455 20.3222 9.42045C20.7994 9.13636 21.3591 8.99432 22.0011 8.99432C22.433 8.99432 22.8349 9.06392 23.2071 9.20312C23.5821 9.33949 23.9088 9.54545 24.1872 9.82102C24.4685 10.0966 24.6872 10.4432 24.8435 10.8608C24.9997 11.2756 25.0778 11.7614 25.0778 12.3182V12.8168H19.5508V11.6918H23.369C23.369 11.4304 23.3122 11.1989 23.1986 10.9972C23.0849 10.7955 22.9273 10.6378 22.7256 10.5241C22.5267 10.4077 22.2952 10.3494 22.031 10.3494C21.7554 10.3494 21.5111 10.4134 21.298 10.5412C21.0878 10.6662 20.923 10.8352 20.8037 11.0483C20.6844 11.2585 20.6233 11.4929 20.6205 11.7514V12.821C20.6205 13.1449 20.6801 13.4247 20.7994 13.6605C20.9216 13.8963 21.0935 14.0781 21.3151 14.206C21.5366 14.3338 21.7994 14.3977 22.1034 14.3977C22.3051 14.3977 22.4898 14.3693 22.6574 14.3125C22.825 14.2557 22.9685 14.1705 23.0878 14.0568C23.2071 13.9432 23.298 13.804 23.3605 13.6392L25.0395 13.75C24.9543 14.1534 24.7795 14.5057 24.5153 14.8068C24.254 15.1051 23.9159 15.3381 23.5011 15.5057C23.0892 15.6705 22.6133 15.7528 22.0736 15.7528ZM28.6744 15.7315C28.1773 15.7315 27.727 15.6037 27.3236 15.348C26.923 15.0895 26.6048 14.7102 26.369 14.2102C26.1361 13.7074 26.0196 13.0909 26.0196 12.3608C26.0196 11.6108 26.1403 10.9872 26.3818 10.4901C26.6233 9.99006 26.9443 9.61648 27.3449 9.36932C27.7483 9.11932 28.1901 8.99432 28.6702 8.99432C29.0366 8.99432 29.342 9.05682 29.5864 9.18182C29.8335 9.30398 30.0324 9.45739 30.183 9.64205C30.3364 9.82386 30.4528 10.0028 30.5324 10.179H30.5878V6.89773H32.3989V15.625H30.6091V14.5767H30.5324C30.4472 14.7585 30.3264 14.9389 30.1702 15.1179C30.0168 15.294 29.8165 15.4403 29.5693 15.5568C29.325 15.6733 29.0267 15.7315 28.6744 15.7315ZM29.2497 14.2869C29.5423 14.2869 29.7895 14.2074 29.9912 14.0483C30.1957 13.8864 30.352 13.6605 30.4599 13.3707C30.5707 13.081 30.6261 12.7415 30.6261 12.3523C30.6261 11.9631 30.5722 11.625 30.4642 11.3381C30.3562 11.0511 30.2 10.8295 29.9955 10.6733C29.7909 10.517 29.5423 10.4389 29.2497 10.4389C28.9514 10.4389 28.7 10.5199 28.4955 10.6818C28.2909 10.8437 28.1361 11.0682 28.031 11.3551C27.9258 11.642 27.8733 11.9744 27.8733 12.3523C27.8733 12.733 27.9258 13.0696 28.031 13.3622C28.1389 13.652 28.2937 13.8793 28.4955 14.044C28.7 14.206 28.9514 14.2869 29.2497 14.2869ZM33.8914 15.625V9.07955H35.7067V15.625H33.8914ZM34.8033 8.2358C34.5334 8.2358 34.3019 8.14631 34.1087 7.96733C33.9184 7.78551 33.8232 7.56818 33.8232 7.31534C33.8232 7.06534 33.9184 6.85085 34.1087 6.67188C34.3019 6.49006 34.5334 6.39915 34.8033 6.39915C35.0732 6.39915 35.3033 6.49006 35.4937 6.67188C35.6869 6.85085 35.7834 7.06534 35.7834 7.31534C35.7834 7.56818 35.6869 7.78551 35.4937 7.96733C35.3033 8.14631 35.0732 8.2358 34.8033 8.2358ZM41.3584 12.8381V9.07955H43.1737V15.625H41.4308V14.4361H41.3626C41.2149 14.8196 40.9692 15.1278 40.6254 15.3608C40.2845 15.5937 39.8683 15.7102 39.3768 15.7102C38.9393 15.7102 38.5544 15.6108 38.222 15.4119C37.8896 15.2131 37.6297 14.9304 37.4422 14.5639C37.2575 14.1974 37.1638 13.7585 37.1609 13.2472V9.07955H38.9763V12.9233C38.9791 13.3097 39.0828 13.6151 39.2874 13.8395C39.4919 14.0639 39.766 14.1761 40.1098 14.1761C40.3285 14.1761 40.5331 14.1264 40.7234 14.027C40.9138 13.9247 41.0672 13.7741 41.1837 13.5753C41.303 13.3764 41.3612 13.1307 41.3584 12.8381ZM44.6258 15.625V9.07955H46.3559V10.2344H46.4326C46.569 9.85085 46.7962 9.5483 47.1144 9.3267C47.4326 9.10511 47.8133 8.99432 48.2565 8.99432C48.7053 8.99432 49.0874 9.10653 49.4028 9.33097C49.7181 9.55256 49.9283 9.85369 50.0334 10.2344H50.1016C50.2352 9.85938 50.4766 9.55966 50.8261 9.33523C51.1783 9.10795 51.5945 8.99432 52.0746 8.99432C52.6854 8.99432 53.1812 9.18892 53.5619 9.57812C53.9454 9.96449 54.1371 10.5128 54.1371 11.223V15.625H52.3261V11.581C52.3261 11.2173 52.2295 10.9446 52.0363 10.7628C51.8431 10.581 51.6016 10.4901 51.3119 10.4901C50.9823 10.4901 50.7252 10.5952 50.5405 10.8054C50.3559 11.0128 50.2636 11.2869 50.2636 11.6278V15.625H48.5036V11.5426C48.5036 11.2216 48.4113 10.9659 48.2266 10.7756C48.0448 10.5852 47.8048 10.4901 47.5065 10.4901C47.3048 10.4901 47.1229 10.5412 46.961 10.6435C46.8019 10.7429 46.6755 10.8835 46.5817 11.0653C46.488 11.2443 46.4411 11.4545 46.4411 11.696V15.625H44.6258Z" fill="#E79800"/>
</svg>
