<svg width="335" height="66" viewBox="0 0 335 66" fill="none" xmlns="http://www.w3.org/2000/svg">
<rect y="0.0205078" width="335" height="65" rx="32.5" fill="#F27400"/>
<path d="M67.2443 45.0205H63.9205L73.5341 18.8387H76.8068L86.4205 45.0205H83.0966L75.2727 22.9807H75.0682L67.2443 45.0205ZM68.4716 34.7932H81.8693V37.6057H68.4716V34.7932ZM95.8679 45.4807C94.6236 45.4807 93.4943 45.2464 92.4801 44.7776C91.4659 44.3003 90.6605 43.6143 90.0639 42.7194C89.4673 41.816 89.169 40.7251 89.169 39.4466C89.169 38.3216 89.3906 37.4097 89.8338 36.7108C90.277 36.0035 90.8693 35.4495 91.6108 35.0489C92.3523 34.6483 93.1705 34.3501 94.0653 34.154C94.9688 33.9495 95.8764 33.7876 96.7884 33.6682C97.9815 33.5148 98.9489 33.3998 99.6903 33.3231C100.44 33.2378 100.986 33.0972 101.327 32.9012C101.676 32.7052 101.851 32.3643 101.851 31.8785V31.7762C101.851 30.5148 101.506 29.5347 100.815 28.8358C100.134 28.137 99.098 27.7876 97.7088 27.7876C96.2685 27.7876 95.1392 28.1029 94.321 28.7336C93.5028 29.3643 92.9276 30.0376 92.5952 30.7535L89.7315 29.7307C90.2429 28.5376 90.9247 27.6086 91.777 26.9438C92.6378 26.2705 93.5753 25.8018 94.5895 25.5376C95.6122 25.2648 96.6179 25.1285 97.6065 25.1285C98.2372 25.1285 98.9616 25.2052 99.7798 25.3586C100.607 25.5035 101.403 25.806 102.17 26.2662C102.946 26.7265 103.589 27.4211 104.101 28.3501C104.612 29.279 104.868 30.5233 104.868 32.083V45.0205H101.851V42.3614H101.697C101.493 42.7876 101.152 43.2435 100.675 43.7293C100.197 44.2151 99.5625 44.6285 98.7699 44.9694C97.9773 45.3103 97.0099 45.4807 95.8679 45.4807ZM96.3281 42.7705C97.5213 42.7705 98.527 42.5361 99.3452 42.0674C100.172 41.5986 100.794 40.9935 101.212 40.252C101.638 39.5106 101.851 38.7307 101.851 37.9126V35.1512C101.723 35.3046 101.442 35.4452 101.007 35.5731C100.581 35.6924 100.087 35.7989 99.5241 35.8927C98.9702 35.9779 98.429 36.0546 97.9006 36.1228C97.3807 36.1824 96.9588 36.2336 96.6349 36.2762C95.8509 36.3785 95.1179 36.5447 94.4361 36.7748C93.7628 36.9964 93.2173 37.333 92.7997 37.7847C92.3906 38.2279 92.1861 38.833 92.1861 39.6001C92.1861 40.6483 92.5739 41.441 93.3494 41.9779C94.1335 42.5063 95.1264 42.7705 96.3281 42.7705ZM113.392 33.208V45.0205H110.375V25.3841H113.289V28.4523H113.545C114.005 27.4552 114.704 26.654 115.642 26.0489C116.579 25.4353 117.789 25.1285 119.272 25.1285C120.602 25.1285 121.765 25.4012 122.762 25.9466C123.76 26.4836 124.535 27.3018 125.089 28.4012C125.643 29.4921 125.92 30.8728 125.92 32.5432V45.0205H122.903V32.7478C122.903 31.2052 122.502 30.0035 121.701 29.1427C120.9 28.2733 119.801 27.8387 118.403 27.8387C117.44 27.8387 116.579 28.0475 115.821 28.4651C115.071 28.8827 114.478 29.4921 114.044 30.2932C113.609 31.0944 113.392 32.066 113.392 33.208ZM148.973 45.4296C147.337 45.4296 145.892 45.0162 144.639 44.1895C143.386 43.3543 142.406 42.1782 141.699 40.6611C140.991 39.1356 140.638 37.333 140.638 35.2535C140.638 33.191 140.991 31.4012 141.699 29.8841C142.406 28.3671 143.391 27.1952 144.652 26.3685C145.913 25.5418 147.371 25.1285 149.024 25.1285C150.303 25.1285 151.313 25.3415 152.054 25.7677C152.804 26.1853 153.375 26.6626 153.767 27.1995C154.168 27.7279 154.479 28.1626 154.7 28.5035H154.956V18.8387H157.973V45.0205H155.058V42.0035H154.7C154.479 42.3614 154.163 42.8131 153.754 43.3586C153.345 43.8955 152.761 44.377 152.003 44.8032C151.244 45.2208 150.234 45.4296 148.973 45.4296ZM149.382 42.7194C150.592 42.7194 151.615 42.404 152.45 41.7733C153.286 41.1341 153.92 40.252 154.355 39.127C154.79 37.9935 155.007 36.6853 155.007 35.2023C155.007 33.7364 154.794 32.4537 154.368 31.3543C153.942 30.2464 153.311 29.3856 152.476 28.7719C151.641 28.1498 150.609 27.8387 149.382 27.8387C148.104 27.8387 147.038 28.1668 146.186 28.8231C145.342 29.4708 144.707 30.3529 144.281 31.4694C143.864 32.5773 143.655 33.8216 143.655 35.2023C143.655 36.6001 143.868 37.8699 144.294 39.012C144.729 40.1455 145.368 41.0489 146.212 41.7222C147.064 42.387 148.121 42.7194 149.382 42.7194ZM172.151 45.4296C170.259 45.4296 168.626 45.012 167.254 44.1768C165.891 43.333 164.838 42.1569 164.097 40.6483C163.364 39.1313 162.997 37.3671 162.997 35.3557C162.997 33.3444 163.364 31.5716 164.097 30.0376C164.838 28.4949 165.869 27.2932 167.19 26.4324C168.52 25.5631 170.071 25.1285 171.844 25.1285C172.866 25.1285 173.876 25.2989 174.874 25.6398C175.871 25.9807 176.778 26.5347 177.597 27.3018C178.415 28.0603 179.067 29.066 179.553 30.3188C180.038 31.5716 180.281 33.1143 180.281 34.9466V36.2251H165.145V33.6171H177.213C177.213 32.5091 176.991 31.5205 176.548 30.6512C176.114 29.7819 175.491 29.0958 174.682 28.593C173.881 28.0901 172.935 27.8387 171.844 27.8387C170.642 27.8387 169.602 28.137 168.724 28.7336C167.855 29.3216 167.186 30.0887 166.717 31.0347C166.249 31.9807 166.014 32.9949 166.014 34.0773V35.816C166.014 37.2989 166.27 38.556 166.781 39.5873C167.301 40.61 168.021 41.3898 168.942 41.9268C169.862 42.4552 170.932 42.7194 172.151 42.7194C172.943 42.7194 173.659 42.6086 174.298 42.387C174.946 42.1569 175.504 41.816 175.973 41.3643C176.442 40.904 176.804 40.333 177.06 39.6512L179.974 40.4694C179.668 41.458 179.152 42.3273 178.428 43.0773C177.703 43.8188 176.808 44.3983 175.743 44.816C174.678 45.2251 173.48 45.4296 172.151 45.4296ZM208.905 29.7819L206.195 30.5489C206.024 30.0972 205.773 29.6583 205.44 29.2322C205.116 28.7975 204.673 28.4395 204.111 28.1583C203.548 27.877 202.828 27.7364 201.95 27.7364C200.749 27.7364 199.747 28.0134 198.946 28.5674C198.153 29.1128 197.757 29.8074 197.757 30.6512C197.757 31.4012 198.03 31.9935 198.575 32.4282C199.121 32.8628 199.973 33.2251 201.132 33.5148L204.047 34.2307C205.803 34.6569 207.111 35.3089 207.972 36.1867C208.832 37.056 209.263 38.1768 209.263 39.5489C209.263 40.6739 208.939 41.6796 208.291 42.566C207.652 43.4523 206.757 44.1512 205.607 44.6626C204.456 45.1739 203.118 45.4296 201.592 45.4296C199.589 45.4296 197.932 44.9949 196.619 44.1256C195.307 43.2563 194.476 41.9864 194.126 40.316L196.99 39.6001C197.263 40.6569 197.778 41.4495 198.537 41.9779C199.304 42.5063 200.305 42.7705 201.541 42.7705C202.947 42.7705 204.064 42.4722 204.891 41.8756C205.726 41.2705 206.143 40.5461 206.143 39.7023C206.143 39.0205 205.905 38.4495 205.428 37.9893C204.95 37.5205 204.217 37.1711 203.229 36.941L199.956 36.1739C198.158 35.7478 196.837 35.0873 195.993 34.1924C195.158 33.289 194.74 32.1597 194.74 30.8046C194.74 29.6966 195.051 28.7165 195.673 27.8643C196.304 27.012 197.161 26.343 198.243 25.8572C199.334 25.3714 200.57 25.1285 201.95 25.1285C203.893 25.1285 205.419 25.5546 206.527 26.4069C207.643 27.2591 208.436 28.3841 208.905 29.7819ZM216.821 18.8387V45.0205H213.804V18.8387H216.821ZM228.126 45.4807C226.881 45.4807 225.752 45.2464 224.738 44.7776C223.724 44.3003 222.918 43.6143 222.322 42.7194C221.725 41.816 221.427 40.7251 221.427 39.4466C221.427 38.3216 221.648 37.4097 222.092 36.7108C222.535 36.0035 223.127 35.4495 223.869 35.0489C224.61 34.6483 225.428 34.3501 226.323 34.154C227.227 33.9495 228.134 33.7876 229.046 33.6682C230.239 33.5148 231.207 33.3998 231.948 33.3231C232.698 33.2378 233.244 33.0972 233.585 32.9012C233.934 32.7052 234.109 32.3643 234.109 31.8785V31.7762C234.109 30.5148 233.763 29.5347 233.073 28.8358C232.391 28.137 231.356 27.7876 229.967 27.7876C228.526 27.7876 227.397 28.1029 226.579 28.7336C225.761 29.3643 225.185 30.0376 224.853 30.7535L221.989 29.7307C222.501 28.5376 223.183 27.6086 224.035 26.9438C224.896 26.2705 225.833 25.8018 226.847 25.5376C227.87 25.2648 228.876 25.1285 229.864 25.1285C230.495 25.1285 231.219 25.2052 232.038 25.3586C232.864 25.5035 233.661 25.806 234.428 26.2662C235.204 26.7265 235.847 27.4211 236.359 28.3501C236.87 29.279 237.126 30.5233 237.126 32.083V45.0205H234.109V42.3614H233.955C233.751 42.7876 233.41 43.2435 232.933 43.7293C232.455 44.2151 231.82 44.6285 231.028 44.9694C230.235 45.3103 229.268 45.4807 228.126 45.4807ZM228.586 42.7705C229.779 42.7705 230.785 42.5361 231.603 42.0674C232.43 41.5986 233.052 40.9935 233.469 40.252C233.896 39.5106 234.109 38.7307 234.109 37.9126V35.1512C233.981 35.3046 233.7 35.4452 233.265 35.5731C232.839 35.6924 232.344 35.7989 231.782 35.8927C231.228 35.9779 230.687 36.0546 230.158 36.1228C229.638 36.1824 229.217 36.2336 228.893 36.2762C228.109 36.3785 227.376 36.5447 226.694 36.7748C226.021 36.9964 225.475 37.333 225.058 37.7847C224.648 38.2279 224.444 38.833 224.444 39.6001C224.444 40.6483 224.832 41.441 225.607 41.9779C226.391 42.5063 227.384 42.7705 228.586 42.7705ZM250.559 52.7932C249.101 52.7932 247.848 52.6057 246.8 52.2307C245.752 51.8643 244.878 51.3785 244.179 50.7733C243.489 50.1768 242.939 49.5376 242.53 48.8557L244.934 47.1682C245.206 47.5262 245.551 47.9353 245.969 48.3955C246.387 48.8643 246.958 49.2691 247.682 49.61C248.415 49.9594 249.374 50.1341 250.559 50.1341C252.144 50.1341 253.452 49.7506 254.483 48.9836C255.515 48.2165 256.03 47.0148 256.03 45.3785V41.3898H255.775C255.553 41.7478 255.238 42.191 254.828 42.7194C254.428 43.2393 253.848 43.7037 253.09 44.1128C252.34 44.5134 251.326 44.7137 250.047 44.7137C248.462 44.7137 247.039 44.3387 245.777 43.5887C244.525 42.8387 243.532 41.7478 242.799 40.316C242.074 38.8841 241.712 37.1455 241.712 35.1001C241.712 33.0887 242.066 31.3373 242.773 29.8458C243.48 28.3458 244.465 27.1867 245.726 26.3685C246.988 25.5418 248.445 25.1285 250.098 25.1285C251.377 25.1285 252.391 25.3415 253.141 25.7677C253.9 26.1853 254.479 26.6626 254.88 27.1995C255.289 27.7279 255.604 28.1626 255.826 28.5035H256.132V25.3841H259.047V45.583C259.047 47.2705 258.664 48.6427 257.897 49.6995C257.138 50.7648 256.115 51.5447 254.828 52.039C253.55 52.5418 252.127 52.7932 250.559 52.7932ZM250.456 42.0035C251.667 42.0035 252.689 41.7265 253.525 41.1725C254.36 40.6185 254.995 39.8216 255.429 38.7819C255.864 37.7421 256.081 36.4978 256.081 35.0489C256.081 33.6341 255.868 32.3856 255.442 31.3032C255.016 30.2208 254.385 29.3728 253.55 28.7591C252.715 28.1455 251.684 27.8387 250.456 27.8387C249.178 27.8387 248.113 28.1626 247.26 28.8103C246.417 29.458 245.782 30.3273 245.355 31.4182C244.938 32.5091 244.729 33.7194 244.729 35.0489C244.729 36.4126 244.942 37.6185 245.368 38.6668C245.803 39.7066 246.442 40.5248 247.286 41.1214C248.138 41.7094 249.195 42.0035 250.456 42.0035ZM268.559 18.8387L268.303 37.6569H265.337L265.081 18.8387H268.559ZM266.82 45.2251C266.189 45.2251 265.648 44.9992 265.196 44.5475C264.745 44.0958 264.519 43.5546 264.519 42.9239C264.519 42.2932 264.745 41.752 265.196 41.3003C265.648 40.8486 266.189 40.6228 266.82 40.6228C267.451 40.6228 267.992 40.8486 268.444 41.3003C268.895 41.752 269.121 42.2932 269.121 42.9239C269.121 43.3415 269.015 43.7251 268.801 44.0745C268.597 44.4239 268.32 44.7052 267.971 44.9182C267.63 45.1228 267.246 45.2251 266.82 45.2251Z" fill="white"/>
</svg>
